<svg width="220" height="180" viewBox="0 0 220 180" fill="none" xmlns="http://www.w3.org/2000/svg">
<path d="M181.587 91.7793C166.429 91.7793 154.106 105.012 154.106 121.921H209.104C209.104 105.012 196.781 91.7793 181.587 91.7793Z" fill="black"/>
<path d="M189.429 93.0398C188.986 94.6844 188.006 96.1336 186.645 97.1568C185.283 98.18 183.618 98.7183 181.915 98.6861C180.213 98.6539 178.569 98.053 177.248 96.9791C175.926 95.9052 175.001 94.4199 174.621 92.7598C162.823 96.0855 154.106 107.708 154.106 121.921H209.104C209.104 108.058 200.807 96.6807 189.429 93.0398Z" fill="#1CD079"/>
<path d="M189.498 92.9697L182.076 122.797H209.102V116.635C209.068 111.038 207.096 105.625 203.522 101.318C199.948 97.0097 194.992 94.0373 189.498 92.9697Z" fill="#F7961C"/>
<path d="M154.176 116.599V122.796H182.043L173.466 93.0391C168.031 94.1549 163.146 97.1047 159.627 101.394C156.109 105.684 154.207 111.052 154.176 116.599Z" fill="#F7961C"/>
<path d="M186.943 93.6345L181.481 95.2799L176.265 93.6345V82.957H186.943V93.6345Z" fill="black"/>
<path d="M182.042 122.796L193.734 104.522L190.233 102.841L195.835 101.231L198.215 96.5399C198.215 96.5399 194.364 93.5992 189.463 93.0391L182.077 122.796H182.042Z" fill="#EDE6DD"/>
<path d="M182.041 122.796L170.384 104.522L173.92 102.842L168.318 101.232L165.763 95.9803C165.763 95.9803 169.579 93.6348 174.515 92.4795L182.076 122.796H182.041Z" fill="#EDE6DD"/>
<path d="M204.552 60.6932C204.552 47.3201 194.294 36.4326 181.587 36.4326C168.914 36.4326 158.656 47.2851 158.656 60.6932C158.656 74.1013 168.914 84.9888 181.587 84.9888C194.294 84.9888 204.552 74.1363 204.552 60.6932Z" fill="black"/>
<path d="M195.275 76.4813C192.404 76.0612 190.514 72.0353 190.969 67.3792C191.459 62.8281 194.12 59.3973 196.99 59.7824C199.826 60.1675 201.751 64.2285 201.261 68.8145C200.806 73.4356 198.111 76.8664 195.275 76.4813Z" fill="black"/>
<path d="M161.947 68.8148C161.457 64.2287 163.348 60.1678 166.218 59.7827C169.054 59.3976 171.75 62.7934 172.24 67.4144C172.695 72.0355 170.804 76.0614 167.934 76.4815C165.133 76.8316 162.403 73.4358 161.947 68.8148Z" fill="black"/>
<path d="M198.67 64.7174C198.67 50.8542 191.039 42.9424 181.587 42.9424C172.169 42.9424 164.538 50.8542 164.538 64.7524C164.538 78.6156 172.169 89.8882 181.587 89.8882C191.039 89.8882 198.67 78.6156 198.67 64.7174Z" fill="#FEF6EC"/>
<path d="M193.175 39.8622C193.175 36.7983 191.958 33.8598 189.791 31.6933C187.625 29.5267 184.686 28.3096 181.622 28.3096C178.559 28.3096 175.62 29.5267 173.454 31.6933C171.287 33.8598 170.07 36.7983 170.07 39.8622C170.07 42.9262 171.287 45.8647 173.454 48.0312C175.62 50.1977 178.559 51.4149 181.622 51.4149C184.686 51.4149 187.625 50.1977 189.791 48.0312C191.958 45.8647 193.175 42.9262 193.175 39.8622Z" fill="black"/>
<path d="M200.106 62.6515C200.106 62.6865 200.106 62.6164 200.106 62.6515C200.106 51.869 192.789 40.5264 182.602 40.5264C172.379 40.5264 162.437 52.079 162.437 62.8265V62.9315C165.588 59.3957 158.261 62.8265 162.707 62.8265C181.728 44.4006 190.128 54.6696 200.106 62.6515Z" fill="black"/>
<path d="M167.969 52.2906C175.566 47.6345 187.223 47.5295 195.695 51.5905L196.605 38.9175C192.388 35.2607 186.932 33.3543 181.354 33.5886C175.777 33.8229 170.5 36.1802 166.604 40.1778L167.969 52.2906Z" fill="white"/>
<path fill-rule="evenodd" clip-rule="evenodd" d="M179.766 42.768H176.161V39.0922H179.766V35.4863H183.442V39.0922H187.048V42.768H183.442V46.3738H179.766V42.768Z" fill="#F7961C"/>
<path d="M57.4132 91.7793C42.1847 91.7793 29.8618 105.012 29.8618 121.921H84.8945C84.8945 105.012 72.5716 91.8143 57.3781 91.8143L57.4132 91.7793Z" fill="black"/>
<path d="M65.2199 93.0398C64.7772 94.6844 63.797 96.1336 62.4354 97.1568C61.0739 98.18 59.4092 98.7183 57.7063 98.6861C56.0035 98.6539 54.3603 98.053 53.0384 96.9791C51.7165 95.9052 50.7918 94.4199 50.4115 92.7598C38.6138 96.0855 29.8618 107.708 29.8618 121.921H84.8945C84.8945 108.058 76.5976 96.6807 65.2199 93.0398Z" fill="#1CD079"/>
<path d="M65.2899 92.9697L57.8682 122.797H84.8944V116.635C84.8596 111.038 82.8877 105.625 79.3138 101.318C75.7399 97.0097 70.7845 94.0373 65.2899 92.9697Z" fill="#F7961C"/>
<path d="M29.9321 116.599V122.796H57.8686L49.2916 93.0391C43.8508 94.1479 38.9571 97.0946 35.432 101.385C31.9069 105.675 29.9649 111.047 29.9321 116.599Z" fill="#F7961C"/>
<path d="M62.6996 93.6345L57.2383 95.2799L52.0571 93.6345V82.957H62.6996V93.6345Z" fill="black"/>
<path d="M57.8335 122.796L69.5262 104.522L66.0254 102.841L71.6267 101.231L74.0072 96.5399C74.0072 96.5399 70.1563 93.5992 65.2552 93.0391L57.8335 122.796Z" fill="#EDE6DD"/>
<path d="M57.8334 122.796L46.1757 104.522L49.6766 102.842L44.0753 101.232L41.5547 95.9803C41.5547 95.9803 45.3706 93.6348 50.3067 92.4795L57.8334 122.796Z" fill="#EDE6DD"/>
<path d="M80.3437 60.6932C80.3437 47.3201 70.0513 36.4326 57.3784 36.4326C44.7055 36.4326 34.4131 47.2851 34.4131 60.6932C34.4131 74.1013 44.7055 84.9888 57.3784 84.9888C70.0513 84.9888 80.3437 74.1363 80.3437 60.6932Z" fill="black"/>
<path d="M71.0663 76.4813C68.1956 76.0612 66.2702 72.0353 66.7603 67.3792C67.2504 62.8281 69.911 59.3973 72.7817 59.7824C75.5823 60.1675 77.5428 64.2285 77.0526 68.8145C76.5625 73.4356 73.9369 76.8664 71.0663 76.4813Z" fill="black"/>
<path d="M37.7038 68.8148C37.2487 64.2287 39.1391 60.1678 42.0098 59.7827C44.8104 59.3976 47.541 62.7934 47.9961 67.4144C48.4862 72.0355 46.5958 76.0614 43.7251 76.4815C40.8895 76.8316 38.1939 73.4358 37.7038 68.8148Z" fill="black"/>
<path d="M74.4618 64.7174C74.4618 50.8542 66.8301 42.9424 57.3779 42.9424C47.9257 42.9424 40.2939 50.8542 40.2939 64.7524C40.2939 78.6156 47.9607 89.8882 57.3779 89.8882C66.8301 89.8882 74.4618 78.6156 74.4618 64.7174Z" fill="#FEF6EC"/>
<path d="M68.966 39.8631C68.966 36.7945 67.747 33.8516 65.5772 31.6818C63.4074 29.512 60.4644 28.293 57.3958 28.293C54.3272 28.293 51.3843 29.512 49.2145 31.6818C47.0447 33.8516 45.8257 36.7945 45.8257 39.8631C45.8257 42.9271 47.0428 45.8656 49.2094 48.0321C51.3759 50.1986 54.3144 51.4158 57.3783 51.4158C60.4423 51.4158 63.3808 50.1986 65.5473 48.0321C67.7138 45.8656 68.931 42.9271 68.931 39.8631H68.966Z" fill="black"/>
<path d="M75.8624 62.6515C75.8624 62.6865 75.8624 62.6164 75.8624 62.6515C75.8624 51.869 68.5807 40.5264 58.3584 40.5264C48.171 40.5264 38.1937 52.079 38.1937 62.8265V62.9315C33.7477 62.9315 41.3445 59.3957 38.1937 62.9315C57.8222 44.9513 65.8851 54.6696 75.8624 62.6515Z" fill="black"/>
<path d="M43.7598 52.2906C51.3566 47.6345 63.0143 47.5295 71.4862 51.5905L72.3964 38.9175C68.1786 35.2607 62.7226 33.3543 57.1452 33.5886C51.5678 33.8229 46.2908 36.1802 42.3945 40.1778L43.7248 52.2906H43.7598Z" fill="white"/>
<path fill-rule="evenodd" clip-rule="evenodd" d="M55.5223 42.768H51.9165V39.0922H55.5223V35.4863H59.2332V39.0922H62.839V42.768H59.2332V46.3738H55.5223V42.768Z" fill="#F7961C"/>
<path d="M142.833 72.7351C137.792 72.0699 134.361 65.3834 135.236 57.7516C136.076 50.1549 140.837 44.4836 145.913 45.1487C150.99 45.7789 154.385 52.5004 153.545 60.0972C152.705 67.7289 147.909 73.4002 142.833 72.7351Z" fill="#FFF8EF"/>
<path d="M84.9997 60.0972C84.1595 52.5004 87.5553 45.7789 92.6314 45.1487C97.6726 44.4836 102.469 50.1549 103.344 57.7516C104.184 65.3834 100.753 72.1049 95.7121 72.7351C90.636 73.3652 85.8399 67.7289 84.9997 60.1322V60.0972Z" fill="#FFF8EF"/>
<path d="M119.483 96.5059C94.312 96.5059 73.9023 118.421 73.9023 146.462H165.098C165.098 118.421 144.689 96.5059 119.483 96.5059Z" fill="#FEF6EC"/>
<path d="M165.097 147.933V137.605C165.097 115.55 146.893 97.626 124.488 97.626H114.616C92.1755 97.626 74.0063 115.515 74.0063 137.605V147.933H165.097Z" fill="#EDE6DD"/>
<path d="M105.935 98.5707L120.288 147.932L132.611 98.4307L105.935 98.5707Z" fill="#6FA68B"/>
<path d="M121.968 111.454L125.399 107.778L119.273 102.282L115.142 107.778L118.573 111.454L114.162 136.625L120.288 147.933L126.519 137.29L121.968 111.454Z" fill="black"/>
<path d="M128.34 99.5164L119.273 102.317L110.661 99.5164V84.0078H128.34V99.5164Z" fill="#EDE6DD"/>
<path d="M120.287 147.933L139.647 117.616L133.8 114.815L143.112 112.154L147.068 104.383C147.068 104.383 140.697 99.4815 132.61 98.5713C130.404 107.218 120.287 147.933 120.287 147.933Z" fill="#F7961C"/>
<path d="M120.287 147.933L100.928 117.616L106.774 114.815L97.4622 112.154L93.2612 103.437C93.2612 103.437 99.5627 99.5864 107.755 97.626L120.287 147.933Z" fill="#F7961C"/>
<path d="M110.38 97.2057L119.272 102.107L128.585 97.2057L137.687 99.2012L130.02 112.434L119.272 102.457L110.38 112.119L101.278 99.3762C101.278 99.3762 107.02 97.1357 110.38 97.2057Z" fill="#6FA68B"/>
<path d="M148.609 48.8245C148.609 24.879 135.411 19.2077 119.167 19.2077C116.192 19.1377 113.776 24.739 111.116 25.1591C107.16 25.7892 103.169 21.6232 100.193 23.6887C93.8915 28.0297 89.7256 35.5214 89.7256 48.8245C89.7256 58.8368 92.8063 81.0319 98.0225 85.583C101.628 88.7687 113.356 94.2299 119.097 94.2299H119.237C124.979 94.2299 136.741 88.7687 140.312 85.583C145.738 79.8416 148.609 58.0316 148.609 48.8245Z" fill="#FEF6EC"/>
<path d="M111.08 48.0893C110.911 48.4268 110.77 48.7781 110.66 49.1395L110.065 50.9599L108.104 50.8549C106.435 50.7966 104.764 50.8316 103.098 50.9599C96.4118 50.9599 98.3022 53.4105 96.7969 63.9129L94.5563 62.7577L94.6614 62.2675C94.8364 61.5674 94.6964 60.3771 94.7314 58.5217C94.7734 54.9919 93.599 51.5553 91.4056 48.7894C90.6366 48.063 89.9658 47.2391 89.4102 46.3389C89.4102 38.182 90.7755 25.6141 101.803 21.5182L102.153 21.4131C105.304 20.713 106.844 21.9033 108.244 22.9535C108.461 23.1125 108.683 23.2643 108.91 23.4086C109.785 23.4086 111.045 22.2533 111.92 21.4482C112.796 20.608 113.496 19.9778 114.476 19.7678C130.44 16.267 152.635 25.8592 147.874 46.4089L146.823 47.6692C144 50.5717 142.44 54.4729 142.482 58.5217V62.3726L142.622 62.7577L140.382 63.9129C139.857 52.5003 142.867 51.6601 133.73 48.5094C131.245 47.6342 128.374 46.5839 124.978 45.5337L123.438 45.0786L122.983 44.9035C120.907 44.2715 118.709 44.1514 116.576 44.5535C114.371 44.9736 112.2 45.9538 111.08 48.0893Z" fill="black"/>
</svg>
