<svg width="162" height="162" viewBox="0 0 162 162" fill="none" xmlns="http://www.w3.org/2000/svg">
<g id="Frame" clip-path="url(#clip0_287_444)">
<g id="Layer_x0020_1">
<path id="Vector" fill-rule="evenodd" clip-rule="evenodd" d="M38.4414 20.2412H104.646L126.074 41.645V139.22C126.068 139.885 125.801 140.521 125.33 140.992C124.86 141.462 124.224 141.729 123.558 141.735H38.4414C37.7721 141.735 37.1298 141.471 36.6543 141C36.1789 140.529 35.9086 139.889 35.9023 139.22V22.7802C35.9023 21.3802 37.0414 20.2412 38.4414 20.2412Z" fill="#F7961C"/>
<path id="Vector_2" fill-rule="evenodd" clip-rule="evenodd" d="M50.6147 106.307C49.9867 106.368 49.4038 106.661 48.9798 107.128C48.5557 107.595 48.3208 108.203 48.3208 108.834C48.3208 109.465 48.5557 110.074 48.9798 110.541C49.4038 111.008 49.9867 111.301 50.6147 111.361H111.362C111.99 111.301 112.573 111.008 112.997 110.541C113.421 110.074 113.656 109.465 113.656 108.834C113.656 108.203 113.421 107.595 112.997 107.128C112.573 106.661 111.99 106.368 111.362 106.307H50.6147ZM50.6147 121.494C49.9867 121.555 49.4038 121.847 48.9798 122.315C48.5557 122.782 48.3208 123.39 48.3208 124.021C48.3208 124.652 48.5557 125.26 48.9798 125.728C49.4038 126.195 49.9867 126.487 50.6147 126.548H111.362C111.99 126.487 112.573 126.195 112.997 125.728C113.421 125.26 113.656 124.652 113.656 124.021C113.656 123.39 113.421 122.782 112.997 122.315C112.573 121.847 111.99 121.555 111.362 121.494H50.6147ZM68.9337 75.9336C68.3057 75.9945 67.7229 76.2871 67.2988 76.7543C66.8747 77.2215 66.6398 77.8298 66.6398 78.4608C66.6398 79.0917 66.8747 79.7001 67.2988 80.1673C67.7229 80.6344 68.3057 80.927 68.9337 80.9879H93.0427C93.6707 80.927 94.2535 80.6344 94.6776 80.1673C95.1016 79.7001 95.3365 79.0917 95.3365 78.4608C95.3365 77.8298 95.1016 77.2215 94.6776 76.7543C94.2535 76.2871 93.6707 75.9945 93.0427 75.9336H68.9337ZM50.6147 91.1203C49.9867 91.1813 49.4038 91.4738 48.9798 91.941C48.5557 92.4082 48.3208 93.0166 48.3208 93.6475C48.3208 94.2785 48.5557 94.8868 48.9798 95.354C49.4038 95.8212 49.9867 96.1138 50.6147 96.1747H111.362C111.99 96.1138 112.573 95.8212 112.997 95.354C113.421 94.8868 113.656 94.2785 113.656 93.6475C113.656 93.0166 113.421 92.4082 112.997 91.941C112.573 91.4738 111.99 91.1813 111.362 91.1203H50.6147Z" fill="white"/>
<path id="Vector_3" fill-rule="evenodd" clip-rule="evenodd" d="M68.7915 42.2621H77.951V33.1025H84.0495V42.2621H93.209V48.3842H84.0495V57.5437H77.951V48.3842H68.7915V42.2621Z" fill="white"/>
<path id="Vector_4" d="M104.646 20.2412L126.074 41.6451H104.646V20.2412Z" fill="#DA6C38"/>
</g>
</g>
<defs>
<clipPath id="clip0_287_444">
<rect width="162" height="162" fill="white"/>
</clipPath>
</defs>
</svg>
