<svg width="198" height="198" viewBox="0 0 198 198" fill="none" xmlns="http://www.w3.org/2000/svg">
<g id="Layer_x0020_1">
<g id="_275526632">
<path id="_275529056" fill-rule="evenodd" clip-rule="evenodd" d="M149.74 74.0726L150.668 72.5645L150.958 74.3046L148.783 85.6736L147.565 85.4416L149.74 74.0726Z" fill="#AEAEAF"/>
<path id="_275529200" fill-rule="evenodd" clip-rule="evenodd" d="M150.146 74.1592L150.581 74.2462L148.406 85.5862L147.942 85.4992L150.146 74.1592Z" fill="#444444"/>
<path id="_275529608" fill-rule="evenodd" clip-rule="evenodd" d="M144.113 74.3334L144.403 72.7383L145.36 74.1884L146.811 85.6444L145.592 85.7894L144.113 74.3334Z" fill="#AEAEAF"/>
<path id="_275528504" fill-rule="evenodd" clip-rule="evenodd" d="M144.52 74.2758L144.955 74.2178L146.405 85.7028L145.97 85.7608L144.52 74.2758Z" fill="#444444"/>
<g id="Group">
<path id="_275527544" d="M49.7104 158.238C49.7104 157.415 49.3835 156.626 48.8015 156.044C48.2195 155.462 47.4302 155.135 46.6072 155.135C45.7841 155.135 44.9948 155.462 44.4128 156.044C43.8309 156.626 43.5039 157.415 43.5039 158.238V163.342C43.5039 164.166 43.8309 164.955 44.4128 165.537C44.9948 166.119 45.7841 166.446 46.6072 166.446C47.4302 166.446 48.2195 166.119 48.8015 165.537C49.3835 164.955 49.7104 164.166 49.7104 163.342V158.238Z" fill="#444444"/>
<path id="_275528072" d="M154.468 158.238C154.393 157.471 154.036 156.758 153.465 156.24C152.893 155.722 152.15 155.435 151.379 155.435C150.608 155.435 149.864 155.722 149.293 156.24C148.722 156.758 148.365 157.471 148.29 158.238V163.343C148.365 164.11 148.722 164.823 149.293 165.341C149.864 165.859 150.608 166.146 151.379 166.146C152.15 166.146 152.893 165.859 153.465 165.341C154.036 164.823 154.393 164.11 154.468 163.343V158.238Z" fill="#444444"/>
<path id="_275527616" d="M37.6741 104.467H160.326C162.037 104.467 163.429 105.859 163.429 107.57V155.453C163.429 156.276 163.102 157.066 162.52 157.648C161.938 158.229 161.149 158.556 160.326 158.556H37.6451C36.8271 158.549 36.0452 158.218 35.4694 157.637C34.8937 157.056 34.5708 156.271 34.5708 155.453V107.57C34.5708 105.859 35.9629 104.467 37.6741 104.467Z" fill="#FAC27D" fill-opacity="0.5"/>
<path id="_275528024" d="M27.4364 104.032C26.6689 104.107 25.9565 104.464 25.4382 105.035C24.9199 105.606 24.6328 106.35 24.6328 107.121C24.6328 107.892 24.9199 108.636 25.4382 109.207C25.9565 109.778 26.6689 110.135 27.4364 110.21H170.535C171.302 110.135 172.015 109.778 172.533 109.207C173.051 108.636 173.338 107.892 173.338 107.121C173.338 106.35 173.051 105.606 172.533 105.035C172.015 104.464 171.302 104.107 170.535 104.032H27.4364Z" fill="#3A3A3A"/>
<path id="_275527736" d="M65.2267 115.053C64.9463 114.958 64.6526 114.909 64.3566 114.908C62.0654 114.908 61.4854 116.648 61.5724 117.634L61.3694 159.949C61.3079 160.636 61.5062 161.321 61.925 161.868C62.3438 162.416 62.9527 162.787 63.6316 162.907C74.5655 164.821 85.9345 165.75 97.7095 165.75C109.455 165.75 121.55 164.792 133.963 162.907C134.632 162.836 135.252 162.523 135.707 162.026C136.161 161.529 136.417 160.883 136.428 160.21L136.631 117.895C136.669 117.462 136.605 117.025 136.442 116.622C136.28 116.218 136.024 115.859 135.696 115.573C135.368 115.287 134.976 115.083 134.554 114.978C134.132 114.872 133.691 114.868 133.267 114.966C121.172 117.779 77.1177 118.185 65.2267 115.053Z" fill="#FEF6EC"/>
<path id="_275527880" d="M97.8253 126.306C102.18 126.321 106.354 128.047 109.447 131.113C112.54 134.179 114.303 138.338 114.357 142.692C114.107 146.915 112.253 150.882 109.175 153.784C106.097 156.685 102.026 158.301 97.7963 158.301C93.5662 158.301 89.4959 156.685 86.4177 153.784C83.3395 150.882 81.4859 146.915 81.2358 142.692C81.2892 138.333 83.0565 134.169 86.1556 131.103C89.2547 128.036 93.4654 126.313 97.8253 126.306Z" fill="white"/>
<path id="_275527472" d="M89.7627 139.792H94.9251V134.717H100.726V139.792H105.859V145.593H100.697V150.639H94.9251V145.564H89.7627V139.792Z" fill="#F7961C"/>
</g>
<path id="_275526224" d="M65.3718 101.161H36.7753C36.2147 101.161 35.7603 101.609 35.7603 102.162C35.7603 102.714 36.2147 103.162 36.7753 103.162H65.3718C65.9324 103.162 66.3869 102.714 66.3869 102.162C66.3869 101.609 65.9324 101.161 65.3718 101.161Z" fill="#F7961C"/>
<path id="_275526392" fill-rule="evenodd" clip-rule="evenodd" d="M42.1987 99.4788L51.1025 98.6377L59.9193 99.5078V100.233H59.1942V101.103H59.9482V101.712H42.1987V101.074H42.9528V100.233H42.1987V99.4788Z" fill="#FAC27D" fill-opacity="0.5"/>
<g id="Group_2">
<path id="_275526464" d="M142.489 103.829H149.595C150.175 103.829 150.697 103.481 151.074 102.988C151.503 102.391 151.764 101.69 151.828 100.958L153.22 87.9938V87.6748C153.231 87.0278 153.027 86.3955 152.64 85.8766C152.318 85.4325 151.843 85.1227 151.306 85.0065C151.201 84.9871 151.094 84.9774 150.987 84.9775H141.097C140.99 84.9774 140.884 84.9871 140.778 85.0065C140.242 85.1227 139.767 85.4325 139.444 85.8766C138.984 86.4805 138.776 87.2396 138.864 87.9938L140.256 100.958C140.312 101.687 140.562 102.388 140.981 102.988C141.387 103.481 141.88 103.829 142.489 103.829Z" fill="#FFDFB6"/>
<path id="_275526344" d="M142.489 103.829H146.028V84.9775H141.097C140.99 84.9774 140.884 84.9871 140.778 85.0065C140.242 85.1227 139.767 85.4325 139.444 85.8766C138.984 86.4805 138.776 87.2396 138.864 87.9938L140.256 100.958C140.312 101.687 140.562 102.388 140.981 102.988C141.387 103.481 141.88 103.829 142.489 103.829Z" fill="#FAC27D" fill-opacity="0.5"/>
</g>
</g>
<g id="Perawat-ikon">
<path id="_275532992" d="M98.9517 75.627C85.1885 75.627 74 87.6419 74 102.994H123.935C123.935 87.6419 112.747 75.627 98.9517 75.627Z" fill="black"/>
<path id="_275533448" d="M106.072 76.7709C105.67 78.2641 104.78 79.5799 103.543 80.5089C102.307 81.4379 100.796 81.9267 99.2496 81.8974C97.7035 81.8682 96.2116 81.3226 95.0114 80.3475C93.8112 79.3725 92.9716 78.0239 92.6263 76.5166C81.9146 79.5362 74 90.089 74 102.994H123.935C123.935 90.4069 116.402 80.0766 106.072 76.7709Z" fill="#1CD079"/>
<path id="_275533328" d="M106.135 76.707L99.396 103.788H123.934V98.1941C123.903 93.112 122.112 88.1977 118.868 84.2864C115.623 80.3751 111.123 77.6764 106.135 76.707Z" fill="#F7961C"/>
<path id="_275533016" d="M74.0635 98.1622V103.788H99.3648L91.5774 76.7705C86.6433 77.7837 82.2074 80.4619 79.013 84.3565C75.8187 88.2511 74.0918 93.1253 74.0635 98.1622Z" fill="#F7961C"/>
<path id="_275532944" d="M103.814 77.3108L98.8557 78.8047L94.1196 77.3108V67.6162H103.814V77.3108Z" fill="black"/>
<path id="_275532920" d="M99.3643 103.788L109.981 87.1962L106.802 85.6705L111.888 84.2083L114.049 79.9491C114.049 79.9491 110.553 77.2791 106.103 76.7705L99.3961 103.788H99.3643Z" fill="#EDE6DD"/>
<path id="_275532896" d="M99.3643 103.789L88.7797 87.1969L91.99 85.6712L86.9043 84.2091L84.584 79.4412C84.584 79.4412 88.0486 77.3116 92.5304 76.2627L99.3961 103.789H99.3643Z" fill="#EDE6DD"/>
<path id="_275532632" d="M119.802 47.4014C119.802 35.2593 110.489 25.374 98.9509 25.374C87.4445 25.374 78.1313 35.2275 78.1313 47.4014C78.1313 59.5753 87.4445 69.4606 98.9509 69.4606C110.489 69.4606 119.802 59.6071 119.802 47.4014Z" fill="black"/>
<path id="_275532800" d="M111.38 61.7363C108.773 61.3549 107.057 57.6996 107.47 53.4721C107.915 49.34 110.331 46.225 112.937 46.5746C115.512 46.9243 117.26 50.6114 116.815 54.7753C116.402 58.971 113.954 62.086 111.38 61.7363Z" fill="black"/>
<path id="_275532704" d="M81.1195 54.7755C80.6745 50.6116 82.3909 46.9245 84.9973 46.5749C87.572 46.2252 90.0194 49.3084 90.4644 53.5041C90.8777 57.6998 89.1612 61.3552 86.5548 61.7366C84.012 62.0544 81.5327 58.9712 81.1195 54.7755Z" fill="black"/>
<path id="_275532176" d="M114.463 51.0558C114.463 38.4687 107.533 31.2852 98.9512 31.2852C90.4009 31.2852 83.4717 38.4687 83.4717 51.0876C83.4717 63.6746 90.4009 73.9096 98.9512 73.9096C107.533 73.9096 114.463 63.6746 114.463 51.0558Z" fill="#FEF6EC"/>
<path id="_275532248" d="M109.473 28.4892C109.473 25.7073 108.368 23.0393 106.4 21.0722C104.433 19.1051 101.765 18 98.9834 18C96.2015 18 93.5335 19.1051 91.5664 21.0722C89.5993 23.0393 88.4941 25.7073 88.4941 28.4892C88.4941 31.2712 89.5993 33.9391 91.5664 35.9062C93.5335 37.8734 96.2015 38.9785 98.9834 38.9785C101.765 38.9785 104.433 37.8734 106.4 35.9062C108.368 33.9391 109.473 31.2712 109.473 28.4892Z" fill="black"/>
<path id="_275532152" d="M115.766 49.1803C115.766 49.1485 115.766 49.2121 115.766 49.1803C115.766 39.3903 109.122 29.0918 99.8728 29.0918C90.5914 29.0918 81.5643 39.581 81.5643 49.3392V49.4345C84.425 46.2242 77.7723 49.3392 81.8091 49.3392C99.0796 32.6094 106.707 41.9332 115.766 49.1803Z" fill="black"/>
<path id="_275532416" d="M86.5868 39.7724C93.4843 35.5449 104.069 35.4496 111.761 39.1367L112.587 27.6303C108.758 24.3101 103.804 22.5792 98.74 22.7919C93.676 23.0047 88.8848 25.1449 85.3472 28.7746L86.5868 39.7724Z" fill="white"/>
<path id="_275532848" fill-rule="evenodd" clip-rule="evenodd" d="M97.2983 31.127H94.0244V27.7895H97.2983V24.5156H100.636V27.7895H103.91V31.127H100.636V34.4009H97.2983V31.127Z" fill="#F7961C"/>
</g>
</g>
</svg>
